<svg xmlns="http://www.w3.org/2000/svg" width="34.024" height="34.024" viewBox="0 0 34.024 34.024">
  <path id="Icon_ionic-ios-arrow-dropdown-circle" data-name="Icon ionic-ios-arrow-dropdown-circle" d="M3.375,20.387A17.012,17.012,0,1,0,20.387,3.375,17.009,17.009,0,0,0,3.375,20.387Zm23.645-3.55a1.585,1.585,0,0,1,2.233,0,1.559,1.559,0,0,1,.458,1.112,1.587,1.587,0,0,1-.466,1.121l-7.713,7.688a1.577,1.577,0,0,1-2.176-.049l-7.827-7.8a1.579,1.579,0,0,1,2.233-2.233l6.633,6.7Z" transform="translate(-3.375 37.399) rotate(-90)" fill="#266ed5"/>
</svg>
