<svg xmlns="http://www.w3.org/2000/svg" width="30.868" height="28.029" viewBox="0 0 30.868 28.029">
  <path id="logout-svgrepo-com" d="M0,11.41V28.245a5.743,5.743,0,0,0,1.68,4A5.392,5.392,0,0,0,5.6,33.841h8.439V30.354H5.6a2.077,2.077,0,0,1-2.067-2.109V11.41A2.04,2.04,0,0,1,5.6,9.343h8.439V5.812H5.6A5.43,5.43,0,0,0,1.68,7.449,5.643,5.643,0,0,0,0,11.41Zm9.257,5.081v6.717a1.471,1.471,0,0,0,1.465,1.42h7.793v5.3A1.179,1.179,0,0,0,19.2,31a1.8,1.8,0,0,0,.431.043,1.042,1.042,0,0,0,.776-.3L30.529,20.623a1.1,1.1,0,0,0,0-1.593L20.41,8.955a1.117,1.117,0,0,0-1.894.776v5.339H10.723a1.472,1.472,0,0,0-1.465,1.42Z" transform="translate(0 -5.812)" fill="#fff"/>
</svg>
