<svg xmlns="http://www.w3.org/2000/svg" width="27" height="27" viewBox="0 0 27 27">
  <path id="project-svgrepo-com" d="M117.67,133.6h2.7a.271.271,0,0,0,.27-.27V117.67a.271.271,0,0,0-.27-.27h-2.7a.271.271,0,0,0-.27.27v15.66A.271.271,0,0,0,117.67,133.6Zm6.48-9.45h2.7a.271.271,0,0,0,.27-.27v-6.21a.271.271,0,0,0-.27-.27h-2.7a.271.271,0,0,0-.27.27v6.21A.271.271,0,0,0,124.15,124.15Zm6.48,2.43h2.7a.271.271,0,0,0,.27-.27v-8.64a.271.271,0,0,0-.27-.27h-2.7a.271.271,0,0,0-.27.27v8.64A.271.271,0,0,0,130.63,126.58ZM137.92,112H113.08a1.079,1.079,0,0,0-1.08,1.08v24.84a1.079,1.079,0,0,0,1.08,1.08h24.84a1.079,1.079,0,0,0,1.08-1.08V113.08A1.079,1.079,0,0,0,137.92,112Zm-1.35,24.57H114.43V114.43h22.14Z" transform="translate(-112 -112)" fill="#fff"/>
</svg>
