<svg xmlns="http://www.w3.org/2000/svg" width="28.081" height="25.741" viewBox="0 0 28.081 25.741">
  <g id="users-svgrepo-com_1_" data-name="users-svgrepo-com (1)" transform="translate(0 -1)">
    <path id="Path_45" data-name="Path 45" d="M1.5,7.435A6.435,6.435,0,1,1,7.935,13.87,6.435,6.435,0,0,1,1.5,7.435Z" transform="translate(0.255)" fill="#fff"/>
    <path id="Path_46" data-name="Path 46" d="M14.7,7.435A8.734,8.734,0,0,1,13.3,12.2a6.435,6.435,0,1,0,0-9.524A8.734,8.734,0,0,1,14.7,7.435Z" transform="translate(2.262)" fill="#fff"/>
    <path id="Path_47" data-name="Path 47" d="M0,18.68A4.68,4.68,0,0,1,4.68,14H11.7a4.68,4.68,0,0,1,4.68,4.68v4.68a1.17,1.17,0,0,1-1.17,1.17H1.17A1.17,1.17,0,0,1,0,23.36Z" transform="translate(0 2.211)" fill="#fff"/>
    <path id="Path_48" data-name="Path 48" d="M16.26,18.68v5.85h8.19a1.17,1.17,0,0,0,1.17-1.17V18.68A4.68,4.68,0,0,0,20.94,14H14.472A7,7,0,0,1,16.26,18.68Z" transform="translate(2.461 2.211)" fill="#fff"/>
  </g>
</svg>
