<svg xmlns="http://www.w3.org/2000/svg" width="86.303" height="86.303" viewBox="0 0 86.303 86.303">
  <g id="Group_2552" data-name="Group 2552" transform="translate(0 0)">
    <path id="Path_49" data-name="Path 49" d="M43.151,0,37.994,4,31.981,1.46l-3.944,5.2-6.465-.884-2.458,6.045-6.474.818-.818,6.474L5.776,21.571l.884,6.466-5.2,3.944L4,37.994,0,43.151l4,5.158L1.46,54.321l5.2,3.944-.884,6.465,6.045,2.458.818,6.474,6.474.818,2.458,6.045,6.465-.884,3.944,5.2,6.013-2.537,5.158,4,5.158-4,6.013,2.537,3.944-5.2,6.465.884,2.458-6.045,6.474-.818.818-6.474,6.045-2.458-.884-6.465,5.2-3.944-2.537-6.013,4-5.158-4-5.158,2.537-6.013-5.2-3.944.884-6.465-6.045-2.458-.818-6.474-6.474-.818L64.731,5.776l-6.466.884-3.944-5.2L48.309,4Z" fill="#2eb758"/>
    <path id="Path_50" data-name="Path 50" d="M299.633,352.277,290,342.641l3.6-3.6,5.847,5.846,22.244-24.674,3.779,3.407Z" transform="translate(-264.535 -292.1)" fill="#fff"/>
  </g>
</svg>
